HIERARCHY
ROOT joint_Root
{
	OFFSET 0.0 0.0 0.0
	CHANNELS 6 Xposition Yposition Zposition Zrotation Xrotation Yrotation 
	JOINT Hips
	{
		OFFSET -17.1583 93.1646 452.98
		CHANNELS 6 Xposition Yposition Zposition Zrotation Xrotation Yrotation 
		JOINT Spine
		{
			OFFSET 15.7357 0.0 0.0
			CHANNELS 6 Xposition Yposition Zposition Zrotation Xrotation Yrotation 
			JOINT Chest
			{
				OFFSET 8.98455 -0.406207 0.0
				CHANNELS 6 Xposition Yposition Zposition Zrotation Xrotation Yrotation 
				JOINT Neck
				{
					OFFSET 16.3773 0.0 0.0
					CHANNELS 6 Xposition Yposition Zposition Zrotation Xrotation Yrotation 
					JOINT Head
					{
						OFFSET 6.45672 0.0 0.0
						CHANNELS 6 Xposition Yposition Zposition Zrotation Xrotation Yrotation 
						End Site
						{
							OFFSET 0.0 0.0 0.0
						}
					}
				}
				JOINT Shoulder_L
				{
					OFFSET 12.9942 -0.242716 4.98039
					CHANNELS 6 Xposition Yposition Zposition Zrotation Xrotation Yrotation 
					JOINT UpperArm_L
					{
						OFFSET 5.34809 0.0 0.0
						CHANNELS 6 Xposition Yposition Zposition Zrotation Xrotation Yrotation 
						JOINT LowerArm_L
						{
							OFFSET 24.3286 1.87007e-05 0.0
							CHANNELS 6 Xposition Yposition Zposition Zrotation Xrotation Yrotation 
							JOINT Hand_L
							{
								OFFSET 22.2916 0.0 0.0
								CHANNELS 6 Xposition Yposition Zposition Zrotation Xrotation Yrotation 
								End Site
								{
									OFFSET 0.0 0.0 0.0
								}
							}
						}
					}
				}
				JOINT Shoulder_R
				{
					OFFSET 12.9945 -0.242716 -4.98039
					CHANNELS 6 Xposition Yposition Zposition Zrotation Xrotation Yrotation 
					JOINT UpperArm_R
					{
						OFFSET -5.34813 0.0 0.0
						CHANNELS 6 Xposition Yposition Zposition Zrotation Xrotation Yrotation 
						JOINT LowerArm_R
						{
							OFFSET -24.3289 0.000322201 0.0
							CHANNELS 6 Xposition Yposition Zposition Zrotation Xrotation Yrotation 
							JOINT Hand_R
							{
								OFFSET -22.2915 -0.000108084 0.0
								CHANNELS 6 Xposition Yposition Zposition Zrotation Xrotation Yrotation 
								End Site
								{
									OFFSET 0.0 0.0 0.0
								}
							}
						}
					}
				}
			}
		}
		JOINT UpperLeg_L
		{
			OFFSET -2.19248 -6.46944 0.0
			CHANNELS 6 Xposition Yposition Zposition Zrotation Xrotation Yrotation 
			JOINT LowerLeg_L
			{
				OFFSET 39.0811 0.0 -1.23785e-05
				CHANNELS 6 Xposition Yposition Zposition Zrotation Xrotation Yrotation 
				JOINT Foot_L
				{
					OFFSET 40.9854 0.0 -1.26872e-05
					CHANNELS 6 Xposition Yposition Zposition Zrotation Xrotation Yrotation 
					JOINT Toes_L
					{
						OFFSET 11.7543 0.0 0.0
						CHANNELS 6 Xposition Yposition Zposition Zrotation Xrotation Yrotation 
						End Site
						{
							OFFSET 0.0 0.0 0.0
						}
					}
				}
			}
		}
		JOINT UpperLeg_R
		{
			OFFSET -2.19251 6.46944 0.0
			CHANNELS 6 Xposition Yposition Zposition Zrotation Xrotation Yrotation 
			JOINT LowerLeg_R
			{
				OFFSET -39.0811 -0.00228153 -0.0401928
				CHANNELS 6 Xposition Yposition Zposition Zrotation Xrotation Yrotation 
				JOINT Foot_R
				{
					OFFSET -40.9854 0.0 0.0
					CHANNELS 6 Xposition Yposition Zposition Zrotation Xrotation Yrotation 
					JOINT Toes_R
					{
						OFFSET -11.7543 0.0 0.0
						CHANNELS 6 Xposition Yposition Zposition Zrotation Xrotation Yrotation 
						End Site
						{
							OFFSET 0.0 0.0 0.0
						}
					}
				}
			}
		}
	}
}
MOTION
Frames:	4
Frame Time:	0.0333333
0.000000 0.000000 0.000000 0.000000 0.000000 -0.000000 -0.068355 95.316700 -36.254900 -91.592800 5.108680 170.119000 15.735700 0.000005 -0.000001 137.106000 84.100100 -137.971000 8.984550 -0.406207 -0.000000 0.341924 8.698180 -1.758310 16.377300 -0.000001 -0.000001 -1.808580 0.604706 0.027563 6.456720 -0.000001 -0.000000 -10.180700 -3.786970 -1.480910 12.994200 -0.242716 4.980390 -92.986500 6.981980 -66.771700 5.348090 -0.000007 -0.000001 -38.640700 -29.439100 32.404500 24.328600 0.000019 0.000005 47.957400 21.923900 -71.392000 22.291600 -0.000001 0.000005 40.719600 3.994850 24.300200 12.994500 -0.242716 -4.980390 88.888800 3.671340 -73.147200 -5.348130 -0.000001 -0.000004 -67.477500 0.755626 -2.918730 -24.328900 0.000322 -0.000009 14.090000 1.962830 -82.231100 -22.291500 -0.000108 -0.000004 53.689400 5.360260 -1.687670 -2.192480 -6.469440 -0.000000 -179.822000 5.813950 -44.536800 39.081100 -0.000007 -0.000012 -0.010621 0.009819 47.257400 40.985400 -0.000006 -0.000013 -5.010730 -0.998534 -61.110600 11.754300 -0.000000 0.000003 0.002482 0.087543 -13.026500 -2.192510 6.469440 -0.000001 178.500000 4.103260 -173.664000 -39.081100 -0.002282 -0.040193 0.015766 -0.032764 20.800000 -40.985400 0.000008 0.000006 -1.533490 -3.572910 -34.823200 -11.754300 -0.000006 -0.000006 0.001308 0.141599 -10.830900
0.000000 0.000000 0.000000 0.000000 0.000000 -0.000000 0.436104 95.662000 -45.979500 -88.833400 5.103220 171.033000 15.735700 0.000005 -0.000001 140.542000 83.688200 -140.477000 8.984550 -0.406207 -0.000000 0.262719 9.739420 0.108411 16.377300 -0.000001 -0.000001 -2.036710 0.453550 0.105377 6.456720 -0.000001 -0.000000 -9.610280 -4.480340 -1.789960 12.994200 -0.242716 4.980390 -93.025900 6.999240 -66.549200 5.348090 -0.000007 -0.000001 -36.461100 -31.303700 33.723200 24.328600 0.000019 0.000005 48.437200 22.149400 -71.515200 22.291600 -0.000001 0.000005 40.740400 3.887560 25.801500 12.994500 -0.242716 -4.980390 88.964100 3.520750 -73.592900 -5.348130 -0.000001 -0.000004 -67.315700 -0.328174 -1.933550 -24.328900 0.000322 -0.000009 13.285300 2.159250 -80.933800 -22.291500 -0.000108 -0.000004 53.311400 5.359340 -1.659440 -2.192480 -6.469440 -0.000000 -176.046000 6.023160 -37.823900 39.081100 -0.000007 -0.000012 -0.021542 0.039587 28.553900 40.985400 -0.000006 -0.000013 -5.513080 3.298610 -66.960100 11.754300 -0.000000 0.000003 0.002462 0.092259 -12.835300 -2.192510 6.469440 -0.000001 -178.352000 4.189440 -171.980000 -39.081100 -0.002282 -0.040193 0.023220 -0.038433 27.388800 -40.985400 0.000008 0.000006 -2.863980 -3.602860 -31.329900 -11.754300 -0.000006 -0.000006 -0.000825 0.180564 -9.248950
0.000000 0.000000 0.000000 0.000000 0.000000 -0.000000 0.801289 94.908600 -55.859700 -87.238900 5.155100 172.178000 15.735700 0.000005 -0.000001 140.139000 83.425700 -139.584000 8.984550 -0.406207 -0.000000 0.629088 10.054900 1.055890 16.377300 -0.000001 -0.000001 -2.649130 0.277901 0.399402 6.456720 -0.000001 -0.000000 -9.109800 -4.455270 -1.537070 12.994200 -0.242716 4.980390 -92.764300 6.582810 -67.160000 5.348090 -0.000007 -0.000001 -37.308100 -33.365800 33.857200 24.328600 0.000019 0.000005 47.133400 22.139000 -70.720800 22.291600 -0.000001 0.000005 40.642500 3.833380 26.545800 12.994500 -0.242716 -4.980390 89.162700 2.857380 -73.659300 -5.348130 -0.000001 -0.000004 -68.658000 -0.891153 -0.588720 -24.328900 0.000322 -0.000009 11.333400 2.871970 -75.959900 -22.291500 -0.000108 -0.000004 54.149900 5.370200 -1.992780 -2.192480 -6.469440 -0.000000 -174.118000 5.789190 -31.399200 39.081100 -0.000007 -0.000012 -0.028530 0.103966 15.344800 40.985400 -0.000006 -0.000013 -7.800750 7.590470 -71.613700 11.754300 -0.000000 0.000003 0.002394 0.100078 -12.518300 -2.192510 6.469440 -0.000001 -176.517000 3.686930 -171.523000 -39.081100 -0.002282 -0.040193 0.035013 -0.041556 37.361200 -40.985400 0.000008 0.000006 -6.875230 -2.192450 -35.102300 -11.754300 -0.000006 -0.000006 -0.001433 0.189044 -8.904300
0.000000 0.000000 0.000000 0.000000 0.000000 -0.000000 0.924396 93.233100 -65.927100 -87.177500 4.161790 173.913000 15.735700 0.000005 -0.000001 132.380000 83.584700 -131.808000 8.984550 -0.406207 -0.000000 1.689230 8.613130 1.016790 16.377300 -0.000001 -0.000001 -2.817950 0.310590 0.627737 6.456720 -0.000001 -0.000000 -9.579660 -3.755990 -0.943584 12.994200 -0.242716 4.980390 -92.818100 6.962600 -67.898600 5.348090 -0.000007 -0.000001 -40.057500 -33.513400 31.907700 24.328600 0.000019 0.000005 46.358400 22.718200 -69.780700 22.291600 -0.000001 0.000005 40.137100 3.844190 26.397300 12.994500 -0.242716 -4.980390 89.143300 2.840380 -73.209100 -5.348130 -0.000001 -0.000004 -69.779800 -0.605105 1.052630 -24.328900 0.000322 -0.000009 9.754380 3.830560 -68.769300 -22.291500 -0.000108 -0.000004 53.836300 5.406500 -3.147780 -2.192480 -6.469440 -0.000000 -175.952000 3.850880 -27.590700 39.081100 -0.000007 -0.000012 -0.030217 0.120221 14.108500 40.985400 -0.000006 -0.000013 -8.337150 8.289560 -73.860800 11.754300 -0.000000 0.000003 0.002423 0.097337 -12.629500 -2.192510 6.469440 -0.000001 -176.827000 5.719620 -172.497000 -39.081100 -0.002282 -0.040193 0.109859 -0.094412 48.471600 -40.985400 0.000008 0.000006 -6.671220 -3.063680 -36.803000 -11.754300 -0.000006 -0.000006 -0.001995 0.196317 -8.608570
